<svg width="48" height="48" viewBox="0 0 48 48" fill="none" xmlns="http://www.w3.org/2000/svg">
<rect x="1" y="1" width="46" height="46" rx="23" stroke="#1273EB" stroke-width="2"/>
<path d="M23.7009 20.84L27.5409 15.2H24.3969L19.0689 23.192C18.3969 24.176 18.0609 25.304 18.0609 26.576C18.0609 28.28 18.6129 29.648 19.7169 30.728C20.8209 31.784 22.2609 32.312 24.0129 32.312C25.7649 32.312 27.1809 31.784 28.2849 30.728C29.3889 29.648 29.9409 28.28 29.9409 26.576C29.9409 24.872 29.3889 23.504 28.2849 22.448C27.1809 21.368 25.7649 20.84 24.0129 20.84H23.7009ZM24.0129 29.696C22.1169 29.696 20.8209 28.472 20.8209 26.576C20.8209 24.68 22.1169 23.456 24.0129 23.456C25.8609 23.456 27.1809 24.68 27.1809 26.576C27.1809 28.472 25.8609 29.696 24.0129 29.696Z" fill="#1273EB"/>
</svg>
