<svg width="48" height="48" viewBox="0 0 48 48" fill="none" xmlns="http://www.w3.org/2000/svg">
<rect x="1" y="1" width="46" height="46" rx="23" stroke="#1273EB" stroke-width="2"/>
<path d="M28.9435 17.552V15.2H18.6235V17.792H25.6555L22.0315 22.568L23.1355 24.224H23.7595C25.6795 24.224 26.8795 25.256 26.8795 26.912C26.8795 28.568 25.6795 29.624 23.7595 29.624C22.0555 29.624 20.9755 28.904 20.4715 27.464L18.1195 28.832C19.0075 31.112 21.1915 32.312 23.7595 32.312C25.4155 32.312 26.8075 31.832 27.9355 30.872C29.0635 29.912 29.6395 28.592 29.6395 26.912C29.6395 24.392 27.9595 22.64 25.5355 22.064L28.9435 17.552Z" fill="#1273EB"/>
</svg>
